<?xml version="1.0" encoding="utf-8"?>
<!-- Generator: Adobe Illustrator 25.2.3, SVG Export Plug-In . SVG Version: 6.00 Build 0)  -->
<svg version="1.1" id="Layer_1" xmlns="http://www.w3.org/2000/svg" xmlns:xlink="http://www.w3.org/1999/xlink" x="0px" y="0px"
	 viewBox="0 0 48 48" style="enable-background:new 0 0 48 48;" xml:space="preserve">
<style type="text/css">
	.st0{fill:#636466;}
	.st1{fill:#FFFFFF;}
	.st2{fill:#FFFFFF;stroke:#636466;stroke-width:2;stroke-linecap:round;stroke-linejoin:round;stroke-miterlimit:10;}
	.st3{fill:#FFFFFF;stroke:#636466;stroke-width:1.5;stroke-linecap:round;stroke-linejoin:round;stroke-miterlimit:10;}
	.st4{fill:#FFFFFF;stroke:#636466;stroke-linecap:round;stroke-linejoin:round;stroke-miterlimit:10;}
</style>
<circle class="st0" cx="24" cy="24" r="24"/>
<path class="st1" d="M23.83,14.09c0.48-0.66,0.73-3.16,0.87-4.16c0.15-1.1,1.09-1.91,2.2-1.91h0c1.16,0,2.13,0.89,2.22,2.05
	c0.09,1.14,0.22,3.89,0.38,4.89c0.33,2,1.71,2.06,3.86,2.28c7.26,0.76,6.8,17.51-2.75,17.51c-7.89,0-11.47-0.65-11.47-0.65
	l-0.17-16.49C18.96,17.61,21.54,17.27,23.83,14.09z"/>
<path class="st3" d="M20.08,35.74l-9.17,0V14.81l9.17,0C23.51,21.67,23.39,28.65,20.08,35.74z"/>
</svg>
