<svg width="233" height="30" viewBox="0 0 233 30" fill="none" xmlns="http://www.w3.org/2000/svg">
<g clip-path="url(#clip0)">
<path d="M34.0173 29.9999H11.2115C11.1346 29.9999 11.0609 29.9693 11.0065 29.915C10.9522 29.8606 10.9216 29.7869 10.9216 29.71C10.9216 29.6331 10.9522 29.5594 11.0065 29.5051C11.0609 29.4507 11.1346 29.4202 11.2115 29.4202H34.0173C34.0942 29.4202 34.1679 29.4507 34.2222 29.5051C34.2766 29.5594 34.3071 29.6331 34.3071 29.71C34.3056 29.7864 34.2746 29.8593 34.2206 29.9133C34.1666 29.9674 34.0937 29.9984 34.0173 29.9999Z" fill="#333333"/>
<path d="M18.9566 26.5507C18.8797 26.5507 18.806 26.5202 18.7516 26.4658C18.6973 26.4115 18.6667 26.3377 18.6667 26.2609C18.676 19.2989 21.4457 12.6247 26.3685 7.7018C31.2914 2.77892 37.9656 0.00920291 44.9276 0C45.0045 0 45.0782 0.030538 45.1326 0.0848964C45.1869 0.139255 45.2175 0.212981 45.2175 0.289855C45.2175 0.366729 45.1869 0.440455 45.1326 0.494813C45.0782 0.549172 45.0045 0.57971 44.9276 0.57971C38.1189 0.587382 31.5913 3.29553 26.7768 8.11002C21.9623 12.9245 19.2541 19.4522 19.2465 26.2609C19.2465 26.3377 19.2159 26.4115 19.1616 26.4658C19.1072 26.5202 19.0335 26.5507 18.9566 26.5507Z" fill="#333333"/>
<path d="M26.2203 26.5506C26.1434 26.5506 26.0697 26.5201 26.0153 26.4657C25.961 26.4114 25.9304 26.3377 25.9304 26.2608C25.9381 21.2361 27.9379 16.4195 31.4915 12.867C35.045 9.31457 39.8622 7.31619 44.8869 7.31006C44.9638 7.31006 45.0375 7.3406 45.0919 7.39495C45.1463 7.44931 45.1768 7.52304 45.1768 7.59991C45.1768 7.67679 45.1463 7.75051 45.0919 7.80487C45.0375 7.85923 44.9638 7.88977 44.8869 7.88977C40.0155 7.89437 35.3449 9.83118 31.8997 13.2752C28.4545 16.7193 26.5163 21.3894 26.5101 26.2608C26.5101 26.3377 26.4796 26.4114 26.4252 26.4657C26.3709 26.5201 26.2971 26.5506 26.2203 26.5506Z" fill="#333333"/>
<path d="M34.0174 26.5508C33.9405 26.5508 33.8668 26.5203 33.8124 26.4659C33.7581 26.4116 33.7275 26.3379 33.7275 26.261C33.7306 23.291 34.9114 20.4434 37.011 18.3427C39.1106 16.242 41.9575 15.0598 44.9275 15.0552C45.0044 15.0552 45.0781 15.0857 45.1325 15.1401C45.1869 15.1944 45.2174 15.2682 45.2174 15.345C45.2174 15.4219 45.1869 15.4956 45.1325 15.55C45.0781 15.6043 45.0044 15.6349 44.9275 15.6349C42.1113 15.6395 39.4118 16.7607 37.4209 18.7526C35.43 20.7446 34.3103 23.4447 34.3072 26.261C34.3072 26.3379 34.2767 26.4116 34.2224 26.4659C34.168 26.5203 34.0943 26.5508 34.0174 26.5508Z" fill="#333333"/>
<path d="M26.2783 26.5623C26.2014 26.5623 26.1277 26.5318 26.0733 26.4774C26.0189 26.4231 25.9884 26.3493 25.9884 26.2725C25.9792 19.4601 23.2685 12.9296 18.451 8.11306C13.6334 3.29656 7.10218 0.587379 0.289855 0.57971C0.212981 0.57971 0.139255 0.549172 0.0848964 0.494813C0.030538 0.440455 0 0.366729 0 0.289855C0 0.212981 0.030538 0.139255 0.0848964 0.0848964C0.139255 0.030538 0.212981 0 0.289855 0C7.26094 0.00768063 13.944 2.78192 18.8711 7.7134C23.7982 12.6449 26.5666 19.3304 26.5681 26.3015C26.5609 26.3732 26.5272 26.4397 26.4736 26.4879C26.42 26.5362 26.3504 26.5627 26.2783 26.5623Z" fill="#333333"/>
<path d="M18.9623 26.5161C18.8854 26.5161 18.8117 26.4855 18.7574 26.4312C18.703 26.3768 18.6725 26.3031 18.6725 26.2262C18.6663 21.3527 16.7276 16.6806 13.2815 13.2345C9.83547 9.78847 5.16334 7.84976 0.289855 7.84363C0.212981 7.84363 0.139255 7.81309 0.0848964 7.75873C0.030538 7.70437 0 7.63065 0 7.55377C0 7.4769 0.030538 7.40317 0.0848964 7.34881C0.139255 7.29445 0.212981 7.26392 0.289855 7.26392C5.31756 7.26852 10.138 9.26781 13.6932 12.8229C17.2483 16.3781 19.2476 21.1985 19.2522 26.2262C19.2522 26.3031 19.2216 26.3768 19.1673 26.4312C19.1129 26.4855 19.0392 26.5161 18.9623 26.5161Z" fill="#333333"/>
<path d="M11.2116 26.5622C11.1347 26.5622 11.061 26.5317 11.0066 26.4773C10.9523 26.423 10.9217 26.3493 10.9217 26.2724C10.9187 23.4536 9.79754 20.7511 7.80434 18.7579C5.81114 16.7647 3.10866 15.6436 0.289855 15.6405C0.212981 15.6405 0.139255 15.61 0.0848964 15.5556C0.030538 15.5012 0 15.4275 0 15.3506C0 15.2738 0.030538 15.2 0.0848964 15.1457C0.139255 15.0913 0.212981 15.0608 0.289855 15.0608C3.26696 15.0654 6.12039 16.2521 8.2228 18.3599C10.3252 20.4678 11.5045 23.3243 11.5014 26.3014C11.4942 26.3731 11.4605 26.4396 11.4069 26.4878C11.3534 26.5361 11.2837 26.5626 11.2116 26.5622Z" fill="#333333"/>
<path d="M58.6434 22.6957V7.29858H62.5971C65.826 7.29858 67.5536 9.0667 67.5536 11.3971C67.5536 12.6667 67.0956 13.5189 65.8666 14.4986C66.6268 14.7953 67.2786 15.3164 67.7353 15.9926C68.1919 16.6689 68.4319 17.4681 68.4231 18.2841C68.4231 20.3884 67.2637 22.6957 63.2057 22.6957H58.6434ZM62.6202 13.9363C65.5768 13.9363 66.0115 12.2319 66.0115 11.3334C66.0115 10.1739 65.3449 8.68989 62.4927 8.68989H60.1739V13.9363H62.6202ZM63.0956 21.3044C65.0782 21.3044 66.8869 20.5102 66.8869 18.2841C66.8869 16.545 65.3681 15.3276 63.0956 15.3276H60.1971V21.3044H63.0956Z" fill="#333333"/>
<path d="M84.6783 22.968C80.4754 22.968 76.5624 19.5535 76.5624 15.0781C76.6075 12.9539 77.4803 10.9312 78.9948 9.44103C80.5094 7.95086 82.546 7.11102 84.6707 7.10044C86.7954 7.08986 88.8402 7.90937 90.3696 9.38437C91.8989 10.8594 92.7918 12.8733 92.858 14.997C92.8199 17.1353 91.9393 19.1722 90.4076 20.6648C88.8759 22.1574 86.817 22.9851 84.6783 22.968ZM84.6783 8.42304C83.3814 8.43335 82.1165 8.82705 81.0428 9.55462C79.9691 10.2822 79.1346 11.3111 78.6444 12.5118C78.1541 13.7126 78.03 15.0315 78.2876 16.3027C78.5453 17.5738 79.1732 18.7403 80.0923 19.6554C81.0114 20.5705 82.1806 21.1932 83.4529 21.4453C84.7251 21.6974 86.0435 21.5675 87.2421 21.072C88.4407 20.5765 89.4659 19.7375 90.1888 18.6606C90.9116 17.5837 91.2998 16.3171 91.3044 15.0201C91.2846 13.2676 90.5761 11.5932 89.3319 10.3588C88.0877 9.12435 86.4078 8.42902 84.6551 8.42304H84.6783Z" fill="#333333"/>
<path d="M109.357 22.968C105.154 22.968 101.241 19.5536 101.241 15.0782C101.23 12.918 102.078 10.842 103.598 9.30697C105.117 7.77189 107.185 6.90344 109.345 6.89268C111.505 6.88192 113.581 7.72972 115.116 9.24958C116.651 10.7694 117.52 12.8369 117.531 14.997C117.492 17.1344 116.613 19.1704 115.082 20.6628C113.552 22.1553 111.494 22.9837 109.357 22.968ZM109.357 8.42311C108.06 8.4357 106.796 8.83134 105.724 9.56027C104.652 10.2892 103.819 11.3189 103.331 12.5198C102.843 13.7208 102.72 15.0393 102.979 16.3097C103.238 17.58 103.867 18.7455 104.786 19.6594C105.706 20.5733 106.875 21.195 108.147 21.4461C109.419 21.6973 110.737 21.5667 111.935 21.0709C113.133 20.575 114.157 19.736 114.879 18.6594C115.602 17.5828 115.99 16.3167 115.994 15.0202C115.975 13.2667 115.265 11.5914 114.02 10.3568C112.774 9.12223 111.093 8.42757 109.339 8.42311H109.357Z" fill="#333333"/>
<path d="M135.362 22.6957L130.22 16.0174L128.226 18.4696V22.6957H126.667V7.29858H128.209V16.1392H128.249L135.304 7.29858H137.281L131.183 14.8348L137.281 22.7189L135.362 22.6957Z" fill="#333333"/>
<path d="M159.948 18.6609C159.258 19.9491 158.236 21.0284 156.986 21.7861C155.737 22.5438 154.307 22.952 152.846 22.9682C150.735 22.9682 148.711 22.1296 147.218 20.6369C145.725 19.1442 144.887 17.1197 144.887 15.0087C144.887 12.8978 145.725 10.8733 147.218 9.38058C148.711 7.8879 150.735 7.04932 152.846 7.04932C155.698 7.04932 158.672 8.6899 159.901 11.2522H158.162C157.563 10.3866 156.764 9.67871 155.832 9.18911C154.9 8.6995 153.864 8.4427 152.811 8.44062C151.091 8.49572 149.458 9.21235 148.253 10.4413C147.048 11.6702 146.363 13.3166 146.342 15.0377C146.328 16.4361 146.768 17.8014 147.594 18.9292C148.421 20.0571 149.591 20.8871 150.929 21.2949C152.266 21.7027 153.7 21.6665 155.015 21.1917C156.331 20.7169 157.457 19.8291 158.226 18.6609H159.948Z" fill="#333333"/>
<path d="M169.119 22.6957V7.29858H170.661V21.3044H177.038V22.6957H169.119Z" fill="#333333"/>
<path d="M194.133 7.29858H195.652V17.0551C195.652 20.9508 193.386 22.9682 190.406 22.9682C187.426 22.9682 185.188 21.0087 185.188 17.0145V7.29858H186.725V17.1015C186.725 20.1971 188.388 21.5711 190.429 21.5711C192.197 21.5711 194.133 20.4696 194.133 17.1189V7.29858Z" fill="#333333"/>
<path d="M205.391 22.6957V7.29858H209.345C212.574 7.29858 214.302 9.0667 214.302 11.3971C214.302 12.6667 213.844 13.5189 212.615 14.4986C213.374 14.796 214.026 15.3172 214.482 15.9933C214.939 16.6694 215.179 17.4683 215.171 18.2841C215.171 20.3884 214.012 22.6957 209.954 22.6957H205.391ZM209.368 13.9363C212.325 13.9363 212.759 12.2319 212.759 11.3334C212.759 10.1739 212.093 8.68989 209.241 8.68989H206.922V13.9363H209.368ZM209.844 21.3044C211.82 21.3044 213.635 20.5102 213.635 18.2841C213.635 16.545 212.116 15.3276 209.844 15.3276H206.945V21.3044H209.844Z" fill="#333333"/>
<path d="M222.643 22.6957V21.3044L230.22 8.68989H222.899V7.29858H231.977V8.68989L224.441 21.3044H232.174V22.6957H222.643Z" fill="#333333"/>
</g>
<defs>
<clipPath id="clip0">
<rect width="232.174" height="30" fill="white"/>
</clipPath>
</defs>
</svg>
